<svg width="3690pt" height="756pt"
 viewBox="0.00 0.00 3690.00 756.00" xmlns="http://www.w3.org/2000/svg" xmlns:xlink="http://www.w3.org/1999/xlink">
<g id="graph0" class="graph" transform="scale(1 1) rotate(0) translate(4 751.75)">
<title>G</title>
<polygon fill="white" stroke="none" points="-4,4 -4,-751.75 3686.12,-751.75 3686.12,4 -4,4"/>
<!-- [SPL/coverage/Header.css.html] -->
<g id="node1" class="node">
<title>[SPL/coverage/Header.css.html]</title>
<polygon fill="#00b2ee" stroke="white" points="756.75,-661.5 545,-661.5 545,-625.5 756.75,-625.5 756.75,-661.5"/>
<text xml:space="preserve" text-anchor="middle" x="650.88" y="-638.83" font-family="Tahoma" font-size="14.00">[SPL/coverage/Header.css.html]</text>
</g>
<!-- [SPL/coverage/Header.css.html]&#45;&#45;[SPL/coverage/Header.css.html] -->
<g id="edge6" class="edge">
<title>[SPL/coverage/Header.css.html]&#45;&#45;[SPL/coverage/Header.css.html]</title>
<path fill="none" stroke="#dc143c" stroke-width="3" stroke-opacity="0.509804" d="M757.04,-650.15C767.85,-648.83 774.75,-646.62 774.75,-643.5 774.75,-640.38 767.85,-638.17 757.04,-636.85"/>
<text xml:space="preserve" text-anchor="middle" x="791.25" y="-639.23" font-family="Arial" font-size="12.00"> 2052 </text>
</g>
<!-- [SPL/coverage/Signup.css.html] -->
<g id="node2" class="node">
<title>[SPL/coverage/Signup.css.html]</title>
<polygon fill="#00b2ee" stroke="white" points="719,-294.75 508.75,-294.75 508.75,-258.75 719,-258.75 719,-294.75"/>
<text xml:space="preserve" text-anchor="middle" x="613.88" y="-272.07" font-family="Tahoma" font-size="14.00">[SPL/coverage/Signup.css.html]</text>
</g>
<!-- [SPL/coverage/Header.css.html]&#45;&#45;[SPL/coverage/Signup.css.html] -->
<g id="edge1" class="edge">
<title>[SPL/coverage/Header.css.html]&#45;&#45;[SPL/coverage/Signup.css.html]</title>
<path fill="none" stroke="#dc143c" stroke-width="10" d="M643.99,-625.09C638.98,-611.68 632.46,-592.57 628.88,-575.25 607.21,-470.68 610.74,-341.24 612.91,-295.09"/>
<text xml:space="preserve" text-anchor="middle" x="632.82" y="-466.73" font-family="Arial" font-size="12.00"> 6040 </text>
</g>
<!-- [SPL/coverage/Login.css.html] -->
<g id="node3" class="node">
<title>[SPL/coverage/Login.css.html]</title>
<polygon fill="#00b2ee" stroke="white" points="864.88,-489 662.88,-489 662.88,-453 864.88,-453 864.88,-489"/>
<text xml:space="preserve" text-anchor="middle" x="763.88" y="-466.32" font-family="Tahoma" font-size="14.00">[SPL/coverage/Login.css.html]</text>
</g>
<!-- [SPL/coverage/Header.css.html]&#45;&#45;[SPL/coverage/Login.css.html] -->
<g id="edge3" class="edge">
<title>[SPL/coverage/Header.css.html]&#45;&#45;[SPL/coverage/Login.css.html]</title>
<path fill="none" stroke="#dc143c" stroke-width="7" stroke-opacity="0.788235" d="M721.7,-625.11C747.42,-615 773.83,-599.32 788.88,-575.25 805.69,-548.35 788.62,-510.99 775.61,-489.37"/>
<text xml:space="preserve" text-anchor="middle" x="812.39" y="-552.98" font-family="Arial" font-size="12.00"> 4424 </text>
</g>
<!-- [SPL/coverage/Signup.tsx.html] -->
<g id="node4" class="node">
<title>[SPL/coverage/Signup.tsx.html]</title>
<polygon fill="#00b2ee" stroke="white" points="360.25,-208.5 151.5,-208.5 151.5,-172.5 360.25,-172.5 360.25,-208.5"/>
<text xml:space="preserve" text-anchor="middle" x="255.88" y="-185.82" font-family="Tahoma" font-size="14.00">[SPL/coverage/Signup.tsx.html]</text>
</g>
<!-- [SPL/coverage/Header.css.html]&#45;&#45;[SPL/coverage/Signup.tsx.html] -->
<g id="edge9" class="edge">
<title>[SPL/coverage/Header.css.html]&#45;&#45;[SPL/coverage/Signup.tsx.html]</title>
<path fill="none" stroke="#dc143c" stroke-width="2" stroke-opacity="0.439216" d="M544.54,-625.1C456.4,-609.94 342.75,-588.37 324.88,-575.25 296.89,-554.71 309.75,-533.12 286.88,-507 235.76,-448.64 183.28,-471.25 146.88,-402.75 116.82,-346.2 110.12,-314.36 141.88,-258.75 155.15,-235.5 179.95,-219.49 203.04,-208.94"/>
<text xml:space="preserve" text-anchor="middle" x="187.61" y="-423.6" font-family="Arial" font-size="12.00"> 1628 </text>
</g>
<!-- [SPL/coverage/Login.tsx.html] -->
<g id="node5" class="node">
<title>[SPL/coverage/Login.tsx.html]</title>
<polygon fill="#00b2ee" stroke="white" points="356.12,-402.75 155.62,-402.75 155.62,-366.75 356.12,-366.75 356.12,-402.75"/>
<text xml:space="preserve" text-anchor="middle" x="255.88" y="-380.07" font-family="Tahoma" font-size="14.00">[SPL/coverage/Login.tsx.html]</text>
</g>
<!-- [SPL/coverage/Header.css.html]&#45;&#45;[SPL/coverage/Login.tsx.html] -->
<g id="edge10" class="edge">
<title>[SPL/coverage/Header.css.html]&#45;&#45;[SPL/coverage/Login.tsx.html]</title>
<path fill="none" stroke="#dc143c" stroke-width="2" stroke-opacity="0.439216" d="M544.56,-626.04C542.99,-625.85 541.42,-625.67 539.88,-625.5 512.42,-622.41 312.26,-626.15 291.88,-607.5 233.32,-553.91 245.11,-445.4 252.41,-403.14"/>
<text xml:space="preserve" text-anchor="middle" x="266.43" y="-509.85" font-family="Arial" font-size="12.00"> 1618 </text>
</g>
<!-- [SPL/coverage/Header.tsx.html] -->
<g id="node6" class="node">
<title>[SPL/coverage/Header.tsx.html]</title>
<polygon fill="#00b2ee" stroke="white" points="544,-575.25 333.75,-575.25 333.75,-539.25 544,-539.25 544,-575.25"/>
<text xml:space="preserve" text-anchor="middle" x="438.88" y="-552.58" font-family="Tahoma" font-size="14.00">[SPL/coverage/Header.tsx.html]</text>
</g>
<!-- [SPL/coverage/Header.css.html]&#45;&#45;[SPL/coverage/Header.tsx.html] -->
<g id="edge14" class="edge">
<title>[SPL/coverage/Header.css.html]&#45;&#45;[SPL/coverage/Header.tsx.html]</title>
<path fill="none" stroke="#dc143c" stroke-opacity="0.368627" d="M606.95,-625.04C570.56,-610.58 519.11,-590.14 482.75,-575.68"/>
<text xml:space="preserve" text-anchor="middle" x="574.07" y="-596.1" font-family="Arial" font-size="12.00"> 1054 </text>
</g>
<!-- [SPL/src/Header.css] -->
<g id="node17" class="node">
<title>[SPL/src/Header.css]</title>
<polygon fill="#00b2ee" stroke="white" points="779.88,-575.25 637.88,-575.25 637.88,-539.25 779.88,-539.25 779.88,-575.25"/>
<text xml:space="preserve" text-anchor="middle" x="708.88" y="-552.58" font-family="Tahoma" font-size="14.00">[SPL/src/Header.css]</text>
</g>
<!-- [SPL/coverage/Header.css.html]&#45;&#45;[SPL/src/Header.css] -->
<g id="edge36" class="edge">
<title>[SPL/coverage/Header.css.html]&#45;&#45;[SPL/src/Header.css]</title>
<path fill="none" stroke="#dc143c" stroke-opacity="0.298039" d="M662.89,-625.04C672.85,-610.58 686.92,-590.14 696.87,-575.68"/>
<text xml:space="preserve" text-anchor="middle" x="696.47" y="-596.1" font-family="Arial" font-size="12.00"> 136 </text>
</g>
<!-- [SPL/coverage/index.html] -->
<g id="node19" class="node">
<title>[SPL/coverage/index.html]</title>
<polygon fill="#00b2ee" stroke="white" points="703.25,-122.25 524.5,-122.25 524.5,-86.25 703.25,-86.25 703.25,-122.25"/>
<text xml:space="preserve" text-anchor="middle" x="613.88" y="-99.58" font-family="Tahoma" font-size="14.00">[SPL/coverage/index.html]</text>
</g>
<!-- [SPL/coverage/Header.css.html]&#45;&#45;[SPL/coverage/index.html] -->
<g id="edge47" class="edge">
<title>[SPL/coverage/Header.css.html]&#45;&#45;[SPL/coverage/index.html]</title>
<path fill="none" stroke="#dc143c" stroke-opacity="0.298039" d="M757.01,-635.55C807.94,-630.43 862.3,-621.79 882.88,-607.5 901.51,-594.55 981.88,-451.57 981.88,-428.88 981.88,-428.88 981.88,-428.88 981.88,-189.5 981.88,-132.56 812.36,-114.1 703.43,-108.12"/>
<text xml:space="preserve" text-anchor="middle" x="991.62" y="-380.48" font-family="Arial" font-size="12.00"> 60 </text>
</g>
<!-- [SPL/coverage/Signup.css.html]&#45;&#45;[SPL/coverage/Signup.css.html] -->
<g id="edge4" class="edge">
<title>[SPL/coverage/Signup.css.html]&#45;&#45;[SPL/coverage/Signup.css.html]</title>
<path fill="none" stroke="#dc143c" stroke-width="5" stroke-opacity="0.647059" d="M719.4,-283.4C730.14,-282.08 737,-279.87 737,-276.75 737,-273.63 730.14,-271.42 719.4,-270.1"/>
<text xml:space="preserve" text-anchor="middle" x="753.5" y="-272.48" font-family="Arial" font-size="12.00"> 3600 </text>
</g>
<!-- [SPL/coverage/Signup.css.html]&#45;&#45;[SPL/coverage/Signup.tsx.html] -->
<g id="edge5" class="edge">
<title>[SPL/coverage/Signup.css.html]&#45;&#45;[SPL/coverage/Signup.tsx.html]</title>
<path fill="none" stroke="#dc143c" stroke-width="3" stroke-opacity="0.509804" d="M553.47,-258.3C518.17,-248.38 472.67,-236.06 431.88,-226.5 405.33,-220.28 376.38,-214.22 349.75,-208.94"/>
<text xml:space="preserve" text-anchor="middle" x="503.69" y="-229.35" font-family="Arial" font-size="12.00"> 2060 </text>
</g>
<!-- [SPL/src/Signup.css] -->
<g id="node10" class="node">
<title>[SPL/src/Signup.css]</title>
<polygon fill="#00b2ee" stroke="white" points="903.12,-208.5 762.62,-208.5 762.62,-172.5 903.12,-172.5 903.12,-208.5"/>
<text xml:space="preserve" text-anchor="middle" x="832.88" y="-185.82" font-family="Tahoma" font-size="14.00">[SPL/src/Signup.css]</text>
</g>
<!-- [SPL/coverage/Signup.css.html]&#45;&#45;[SPL/src/Signup.css] -->
<g id="edge28" class="edge">
<title>[SPL/coverage/Signup.css.html]&#45;&#45;[SPL/src/Signup.css]</title>
<path fill="none" stroke="#dc143c" stroke-opacity="0.298039" d="M659.25,-258.29C696.84,-243.83 749.99,-223.39 787.56,-208.93"/>
<text xml:space="preserve" text-anchor="middle" x="749.61" y="-229.35" font-family="Arial" font-size="12.00"> 184 </text>
</g>
<!-- [SPL/coverage/Signup.css.html]&#45;&#45;[SPL/coverage/index.html] -->
<g id="edge46" class="edge">
<title>[SPL/coverage/Signup.css.html]&#45;&#45;[SPL/coverage/index.html]</title>
<path fill="none" stroke="#dc143c" stroke-opacity="0.298039" d="M613.88,-258.46C613.88,-225.78 613.88,-155.3 613.88,-122.58"/>
<text xml:space="preserve" text-anchor="middle" x="623.62" y="-186.22" font-family="Arial" font-size="12.00"> 60 </text>
</g>
<!-- [SPL/coverage/Login.css.html]&#45;&#45;[SPL/coverage/Signup.css.html] -->
<g id="edge2" class="edge">
<title>[SPL/coverage/Login.css.html]&#45;&#45;[SPL/coverage/Signup.css.html]</title>
<path fill="none" stroke="#dc143c" stroke-width="9" stroke-opacity="0.929412" d="M750.11,-452.61C739.39,-439.05 724.15,-419.73 710.88,-402.75 680.92,-364.45 646.02,-319.36 627.33,-295.17"/>
<text xml:space="preserve" text-anchor="middle" x="727.38" y="-380.48" font-family="Arial" font-size="12.00"> 5732 </text>
</g>
<!-- [SPL/coverage/Login.css.html]&#45;&#45;[SPL/coverage/Login.css.html] -->
<g id="edge8" class="edge">
<title>[SPL/coverage/Login.css.html]&#45;&#45;[SPL/coverage/Login.css.html]</title>
<path fill="none" stroke="#dc143c" stroke-width="3" stroke-opacity="0.509804" d="M865.01,-477.75C875.88,-476.45 882.88,-474.2 882.88,-471 882.88,-467.8 875.88,-465.55 865.01,-464.25"/>
<text xml:space="preserve" text-anchor="middle" x="899.38" y="-466.73" font-family="Arial" font-size="12.00"> 1836 </text>
</g>
<!-- [SPL/coverage/Login.css.html]&#45;&#45;[SPL/coverage/Signup.tsx.html] -->
<g id="edge11" class="edge">
<title>[SPL/coverage/Login.css.html]&#45;&#45;[SPL/coverage/Signup.tsx.html]</title>
<path fill="none" stroke="#dc143c" stroke-width="2" stroke-opacity="0.439216" d="M760.57,-452.61C754.13,-416.92 741.59,-336.73 753.88,-312.75 760.12,-300.56 772.63,-306.94 778.88,-294.75 786.17,-280.51 789.44,-270.76 778.88,-258.75 751.72,-227.88 505.19,-207.22 360.5,-197.64"/>
<text xml:space="preserve" text-anchor="middle" x="770.38" y="-326.48" font-family="Arial" font-size="12.00"> 1556 </text>
</g>
<!-- [SPL/coverage/Login.css.html]&#45;&#45;[SPL/coverage/Login.tsx.html] -->
<g id="edge12" class="edge">
<title>[SPL/coverage/Login.css.html]&#45;&#45;[SPL/coverage/Login.tsx.html]</title>
<path fill="none" stroke="#dc143c" stroke-width="2" stroke-opacity="0.439216" d="M662.61,-454.92C657.97,-454.27 653.37,-453.62 648.88,-453 586.73,-444.41 570.81,-445 508.88,-435 451.78,-425.78 387.84,-413.32 338.53,-403.24"/>
<text xml:space="preserve" text-anchor="middle" x="525.38" y="-423.6" font-family="Arial" font-size="12.00"> 1546 </text>
</g>
<!-- [SPL/src/Login.css] -->
<g id="node18" class="node">
<title>[SPL/src/Login.css]</title>
<polygon fill="#00b2ee" stroke="white" points="928,-348.75 795.75,-348.75 795.75,-312.75 928,-312.75 928,-348.75"/>
<text xml:space="preserve" text-anchor="middle" x="861.88" y="-326.07" font-family="Tahoma" font-size="14.00">[SPL/src/Login.css]</text>
</g>
<!-- [SPL/coverage/Login.css.html]&#45;&#45;[SPL/src/Login.css] -->
<g id="edge37" class="edge">
<title>[SPL/coverage/Login.css.html]&#45;&#45;[SPL/src/Login.css]</title>
<path fill="none" stroke="#dc143c" stroke-opacity="0.298039" d="M776.09,-452.77C794.87,-426.28 830.64,-375.82 849.51,-349.2"/>
<text xml:space="preserve" text-anchor="middle" x="811.5" y="-423.6" font-family="Arial" font-size="12.00"> 130 </text>
</g>
<!-- [SPL/coverage/Login.css.html]&#45;&#45;[SPL/coverage/index.html] -->
<g id="edge48" class="edge">
<title>[SPL/coverage/Login.css.html]&#45;&#45;[SPL/coverage/index.html]</title>
<path fill="none" stroke="#dc143c" stroke-opacity="0.298039" d="M808,-452.57C848.48,-433.82 905.56,-399.65 928.88,-348.75 948.94,-304.94 966.04,-232.45 911.88,-172.5 884.32,-142 780.89,-123.78 703.56,-114.15"/>
<text xml:space="preserve" text-anchor="middle" x="957.96" y="-272.48" font-family="Arial" font-size="12.00"> 60 </text>
</g>
<!-- [SPL/coverage/Signup.tsx.html]&#45;&#45;[SPL/coverage/Signup.tsx.html] -->
<g id="edge26" class="edge">
<title>[SPL/coverage/Signup.tsx.html]&#45;&#45;[SPL/coverage/Signup.tsx.html]</title>
<path fill="none" stroke="#dc143c" stroke-opacity="0.298039" d="M360.32,-197.2C371.25,-195.89 378.25,-193.66 378.25,-190.5 378.25,-187.34 371.25,-185.11 360.32,-183.8"/>
<text xml:space="preserve" text-anchor="middle" x="391.38" y="-186.22" font-family="Arial" font-size="12.00"> 216 </text>
</g>
<!-- [SPL/src/Signup.tsx] -->
<g id="node14" class="node">
<title>[SPL/src/Signup.tsx]</title>
<polygon fill="#00b2ee" stroke="white" points="232.38,-122.25 93.38,-122.25 93.38,-86.25 232.38,-86.25 232.38,-122.25"/>
<text xml:space="preserve" text-anchor="middle" x="162.88" y="-99.58" font-family="Tahoma" font-size="14.00">[SPL/src/Signup.tsx]</text>
</g>
<!-- [SPL/coverage/Signup.tsx.html]&#45;&#45;[SPL/src/Signup.tsx] -->
<g id="edge57" class="edge">
<title>[SPL/coverage/Signup.tsx.html]&#45;&#45;[SPL/src/Signup.tsx]</title>
<path fill="none" stroke="#dc143c" stroke-opacity="0.298039" d="M236.61,-172.04C220.64,-157.58 198.07,-137.14 182.12,-122.68"/>
<text xml:space="preserve" text-anchor="middle" x="224.69" y="-143.1" font-family="Arial" font-size="12.00"> 24 </text>
</g>
<!-- [backend/uploads/1761261056814&#45;995230287.tsx] -->
<g id="node15" class="node">
<title>[backend/uploads/1761261056814&#45;995230287.tsx]</title>
<polygon fill="#00b2ee" stroke="white" points="325.75,-36 0,-36 0,0 325.75,0 325.75,-36"/>
<text xml:space="preserve" text-anchor="middle" x="162.88" y="-13.32" font-family="Tahoma" font-size="14.00">[backend/uploads/1761261056814&#45;995230287.tsx]</text>
</g>
<!-- [SPL/coverage/Signup.tsx.html]&#45;&#45;[backend/uploads/1761261056814&#45;995230287.tsx] -->
<g id="edge55" class="edge">
<title>[SPL/coverage/Signup.tsx.html]&#45;&#45;[backend/uploads/1761261056814&#45;995230287.tsx]</title>
<path fill="none" stroke="#dc143c" stroke-opacity="0.298039" d="M256.93,-172.27C257.48,-150.78 255.86,-113.56 240.88,-86.25 229.52,-65.56 209.14,-48.32 192.06,-36.49"/>
<text xml:space="preserve" text-anchor="middle" x="262.85" y="-99.97" font-family="Arial" font-size="12.00"> 24 </text>
</g>
<!-- [SPL/coverage/Signup.tsx.html]&#45;&#45;[SPL/coverage/index.html] -->
<g id="edge44" class="edge">
<title>[SPL/coverage/Signup.tsx.html]&#45;&#45;[SPL/coverage/index.html]</title>
<path fill="none" stroke="#dc143c" stroke-opacity="0.298039" d="M300.21,-172.11C328.28,-161.65 365.53,-148.76 399.38,-140.25 439.9,-130.07 485.51,-122.14 524.22,-116.43"/>
<text xml:space="preserve" text-anchor="middle" x="409.12" y="-143.1" font-family="Arial" font-size="12.00"> 62 </text>
</g>
<!-- [SPL/coverage/Login.tsx.html]&#45;&#45;[SPL/coverage/Signup.css.html] -->
<g id="edge7" class="edge">
<title>[SPL/coverage/Login.tsx.html]&#45;&#45;[SPL/coverage/Signup.css.html]</title>
<path fill="none" stroke="#dc143c" stroke-width="3" stroke-opacity="0.509804" d="M328.98,-366.34C345.37,-361.46 362.47,-355.58 377.88,-348.75 405.61,-336.45 407.64,-323.86 435.88,-312.75 458.74,-303.76 484.19,-296.99 508.53,-291.94"/>
<text xml:space="preserve" text-anchor="middle" x="452.38" y="-326.48" font-family="Arial" font-size="12.00"> 2050 </text>
</g>
<!-- [SPL/coverage/Login.tsx.html]&#45;&#45;[SPL/coverage/Signup.tsx.html] -->
<g id="edge16" class="edge">
<title>[SPL/coverage/Login.tsx.html]&#45;&#45;[SPL/coverage/Signup.tsx.html]</title>
<path fill="none" stroke="#dc143c" stroke-opacity="0.368627" d="M255.88,-366.35C255.88,-329.84 255.88,-245.6 255.88,-209"/>
<text xml:space="preserve" text-anchor="middle" x="269" y="-272.48" font-family="Arial" font-size="12.00"> 824 </text>
</g>
<!-- [SPL/coverage/Login.tsx.html]&#45;&#45;[SPL/coverage/Login.tsx.html] -->
<g id="edge25" class="edge">
<title>[SPL/coverage/Login.tsx.html]&#45;&#45;[SPL/coverage/Login.tsx.html]</title>
<path fill="none" stroke="#dc143c" stroke-opacity="0.298039" d="M356.38,-391.5C367.18,-390.2 374.12,-387.95 374.12,-384.75 374.12,-381.55 367.18,-379.3 356.38,-378"/>
<text xml:space="preserve" text-anchor="middle" x="387.25" y="-380.48" font-family="Arial" font-size="12.00"> 220 </text>
</g>
<!-- [SPL/coverage/Login.tsx.html]&#45;&#45;[SPL/coverage/index.html] -->
<g id="edge43" class="edge">
<title>[SPL/coverage/Login.tsx.html]&#45;&#45;[SPL/coverage/index.html]</title>
<path fill="none" stroke="#dc143c" stroke-opacity="0.298039" d="M271.39,-366.43C318.98,-313.45 461.27,-156.21 487.88,-140.25 499.85,-133.07 513.34,-127.32 526.93,-122.72"/>
<text xml:space="preserve" text-anchor="middle" x="407.06" y="-229.35" font-family="Arial" font-size="12.00"> 62 </text>
</g>
<!-- [SPL/src/Login.tsx] -->
<g id="node20" class="node">
<title>[SPL/src/Login.tsx]</title>
<polygon fill="#00b2ee" stroke="white" points="133.25,-208.5 2.5,-208.5 2.5,-172.5 133.25,-172.5 133.25,-208.5"/>
<text xml:space="preserve" text-anchor="middle" x="67.88" y="-185.82" font-family="Tahoma" font-size="14.00">[SPL/src/Login.tsx]</text>
</g>
<!-- [SPL/coverage/Login.tsx.html]&#45;&#45;[SPL/src/Login.tsx] -->
<g id="edge49" class="edge">
<title>[SPL/coverage/Login.tsx.html]&#45;&#45;[SPL/src/Login.tsx]</title>
<path fill="none" stroke="#dc143c" stroke-opacity="0.298039" d="M238.86,-366.35C203.16,-329.84 120.77,-245.6 84.99,-209"/>
<text xml:space="preserve" text-anchor="middle" x="177.89" y="-272.48" font-family="Arial" font-size="12.00"> 38 </text>
</g>
<!-- [SPL/coverage/Header.tsx.html]&#45;&#45;[SPL/coverage/Signup.css.html] -->
<g id="edge13" class="edge">
<title>[SPL/coverage/Header.tsx.html]&#45;&#45;[SPL/coverage/Signup.css.html]</title>
<path fill="none" stroke="#dc143c" stroke-width="2" stroke-opacity="0.439216" d="M467.99,-538.86C475.29,-533.72 482.77,-527.73 488.88,-521.25 519.73,-488.5 520.69,-474.69 541.88,-435 542.77,-433.32 587.52,-335.43 606.01,-294.96"/>
<text xml:space="preserve" text-anchor="middle" x="564.75" y="-423.6" font-family="Arial" font-size="12.00"> 1342 </text>
</g>
<!-- [SPL/coverage/Header.tsx.html]&#45;&#45;[SPL/coverage/Login.css.html] -->
<g id="edge15" class="edge">
<title>[SPL/coverage/Header.tsx.html]&#45;&#45;[SPL/coverage/Login.css.html]</title>
<path fill="none" stroke="#dc143c" stroke-opacity="0.368627" d="M506.22,-538.79C561.99,-524.33 640.87,-503.89 696.62,-489.43"/>
<text xml:space="preserve" text-anchor="middle" x="637.33" y="-509.85" font-family="Arial" font-size="12.00"> 1006 </text>
</g>
<!-- [SPL/coverage/Header.tsx.html]&#45;&#45;[SPL/coverage/Signup.tsx.html] -->
<g id="edge20" class="edge">
<title>[SPL/coverage/Header.tsx.html]&#45;&#45;[SPL/coverage/Signup.tsx.html]</title>
<path fill="none" stroke="#dc143c" stroke-opacity="0.298039" d="M439.26,-538.86C439.38,-504.34 436.32,-425.44 408.88,-366.75 377.23,-299.06 311.42,-237.68 277.35,-208.84"/>
<text xml:space="preserve" text-anchor="middle" x="435.35" y="-380.48" font-family="Arial" font-size="12.00"> 482 </text>
</g>
<!-- [SPL/coverage/Header.tsx.html]&#45;&#45;[SPL/coverage/Login.tsx.html] -->
<g id="edge21" class="edge">
<title>[SPL/coverage/Header.tsx.html]&#45;&#45;[SPL/coverage/Login.tsx.html]</title>
<path fill="none" stroke="#dc143c" stroke-opacity="0.298039" d="M420.32,-538.96C385.25,-506.28 309.59,-435.8 274.48,-403.08"/>
<text xml:space="preserve" text-anchor="middle" x="378.69" y="-466.73" font-family="Arial" font-size="12.00"> 434 </text>
</g>
<!-- [SPL/coverage/Header.tsx.html]&#45;&#45;[SPL/coverage/Header.tsx.html] -->
<g id="edge39" class="edge">
<title>[SPL/coverage/Header.tsx.html]&#45;&#45;[SPL/coverage/Header.tsx.html]</title>
<path fill="none" stroke="#dc143c" stroke-opacity="0.298039" d="M544.4,-563.9C555.14,-562.58 562,-560.37 562,-557.25 562,-554.13 555.14,-551.92 544.4,-550.6"/>
<text xml:space="preserve" text-anchor="middle" x="571.75" y="-552.98" font-family="Arial" font-size="12.00"> 72 </text>
</g>
<!-- [SPL/coverage/Header.tsx.html]&#45;&#45;[SPL/coverage/index.html] -->
<g id="edge45" class="edge">
<title>[SPL/coverage/Header.tsx.html]&#45;&#45;[SPL/coverage/index.html]</title>
<path fill="none" stroke="#dc143c" stroke-opacity="0.298039" d="M446.56,-539.05C448.84,-533.45 451.18,-527.16 452.88,-521.25 485.5,-407.31 452.85,-367.54 499.88,-258.75 523.84,-203.29 571.35,-149.11 596.81,-122.41"/>
<text xml:space="preserve" text-anchor="middle" x="490.74" y="-326.48" font-family="Arial" font-size="12.00"> 62 </text>
</g>
<!-- [SPL/coverage/AuthContext.ts.html] -->
<g id="node7" class="node">
<title>[SPL/coverage/AuthContext.ts.html]</title>
<polygon fill="#00b2ee" stroke="white" points="974.75,-747.75 739,-747.75 739,-711.75 974.75,-711.75 974.75,-747.75"/>
<text xml:space="preserve" text-anchor="middle" x="856.88" y="-725.08" font-family="Tahoma" font-size="14.00">[SPL/coverage/AuthContext.ts.html]</text>
</g>
<!-- [SPL/coverage/AuthContext.ts.html]&#45;&#45;[SPL/coverage/Header.css.html] -->
<g id="edge18" class="edge">
<title>[SPL/coverage/AuthContext.ts.html]&#45;&#45;[SPL/coverage/Header.css.html]</title>
<path fill="none" stroke="#dc143c" stroke-opacity="0.298039" d="M814.19,-711.29C778.84,-696.83 728.84,-676.39 693.5,-661.93"/>
<text xml:space="preserve" text-anchor="middle" x="779.33" y="-682.35" font-family="Arial" font-size="12.00"> 566 </text>
</g>
<!-- [SPL/coverage/AuthContext.ts.html]&#45;&#45;[SPL/coverage/Signup.css.html] -->
<g id="edge17" class="edge">
<title>[SPL/coverage/AuthContext.ts.html]&#45;&#45;[SPL/coverage/Signup.css.html]</title>
<path fill="none" stroke="#dc143c" stroke-opacity="0.368627" d="M872.04,-711.38C890.38,-689.11 920.23,-648.45 931.88,-607.5 944.22,-564.09 1036.85,-634.1 924.88,-453 920.7,-446.25 724.26,-338.19 645.78,-295.2"/>
<text xml:space="preserve" text-anchor="middle" x="976.74" y="-509.85" font-family="Arial" font-size="12.00"> 710 </text>
</g>
<!-- [SPL/coverage/AuthContext.ts.html]&#45;&#45;[SPL/coverage/Login.css.html] -->
<g id="edge19" class="edge">
<title>[SPL/coverage/AuthContext.ts.html]&#45;&#45;[SPL/coverage/Login.css.html]</title>
<path fill="none" stroke="#dc143c" stroke-opacity="0.298039" d="M858.2,-711.27C860.09,-676.6 860.69,-597.45 832.88,-539.25 823.21,-519.03 804.76,-501.55 789.37,-489.48"/>
<text xml:space="preserve" text-anchor="middle" x="866.07" y="-596.1" font-family="Arial" font-size="12.00"> 542 </text>
</g>
<!-- [SPL/coverage/AuthContext.ts.html]&#45;&#45;[SPL/coverage/Signup.tsx.html] -->
<g id="edge24" class="edge">
<title>[SPL/coverage/AuthContext.ts.html]&#45;&#45;[SPL/coverage/Signup.tsx.html]</title>
<path fill="none" stroke="#dc143c" stroke-opacity="0.298039" d="M738.71,-727.67C523.56,-724.12 89.88,-708.97 89.88,-644.5 89.88,-644.5 89.88,-644.5 89.88,-275.75 89.88,-241.33 118.6,-220.97 152.16,-208.92"/>
<text xml:space="preserve" text-anchor="middle" x="103" y="-466.73" font-family="Arial" font-size="12.00"> 270 </text>
</g>
<!-- [SPL/coverage/AuthContext.ts.html]&#45;&#45;[SPL/coverage/Login.tsx.html] -->
<g id="edge23" class="edge">
<title>[SPL/coverage/AuthContext.ts.html]&#45;&#45;[SPL/coverage/Login.tsx.html]</title>
<path fill="none" stroke="#dc143c" stroke-opacity="0.298039" d="M738.53,-725.8C544.94,-719.37 181.88,-699.93 181.88,-644.5 181.88,-644.5 181.88,-644.5 181.88,-470 181.88,-441.38 206.27,-417.85 227.05,-403"/>
<text xml:space="preserve" text-anchor="middle" x="195" y="-552.98" font-family="Arial" font-size="12.00"> 272 </text>
</g>
<!-- [SPL/coverage/AuthContext.ts.html]&#45;&#45;[SPL/coverage/Header.tsx.html] -->
<g id="edge27" class="edge">
<title>[SPL/coverage/AuthContext.ts.html]&#45;&#45;[SPL/coverage/Header.tsx.html]</title>
<path fill="none" stroke="#dc143c" stroke-opacity="0.298039" d="M738.63,-715.56C653.31,-704.25 546.85,-685.92 509.62,-661.5 477.47,-640.4 455.96,-599.12 445.74,-575.65"/>
<text xml:space="preserve" text-anchor="middle" x="522.75" y="-639.23" font-family="Arial" font-size="12.00"> 208 </text>
</g>
<!-- [SPL/coverage/AuthContext.ts.html]&#45;&#45;[SPL/coverage/AuthContext.ts.html] -->
<g id="edge63" class="edge">
<title>[SPL/coverage/AuthContext.ts.html]&#45;&#45;[SPL/coverage/AuthContext.ts.html]</title>
<path fill="none" stroke="#dc143c" stroke-opacity="0.298039" d="M975.21,-736.18C985.98,-734.84 992.75,-732.7 992.75,-729.75 992.75,-726.8 985.98,-724.66 975.21,-723.32"/>
<text xml:space="preserve" text-anchor="middle" x="1002.5" y="-725.48" font-family="Arial" font-size="12.00"> 12 </text>
</g>
<!-- [SPL/coverage/AuthContext.ts.html]&#45;&#45;[SPL/coverage/index.html] -->
<g id="edge42" class="edge">
<title>[SPL/coverage/AuthContext.ts.html]&#45;&#45;[SPL/coverage/index.html]</title>
<path fill="none" stroke="#dc143c" stroke-opacity="0.298039" d="M968.39,-711.31C1001.87,-699.27 1029.88,-678.91 1029.88,-644.5 1029.88,-644.5 1029.88,-644.5 1029.88,-189.5 1029.88,-123.46 825.92,-108.59 703.63,-105.62"/>
<text xml:space="preserve" text-anchor="middle" x="1039.62" y="-423.6" font-family="Arial" font-size="12.00"> 62 </text>
</g>
<!-- [SPL/src/AuthContext.ts] -->
<g id="node33" class="node">
<title>[SPL/src/AuthContext.ts]</title>
<polygon fill="#00b2ee" stroke="white" points="1223.88,-661.5 1057.88,-661.5 1057.88,-625.5 1223.88,-625.5 1223.88,-661.5"/>
<text xml:space="preserve" text-anchor="middle" x="1140.88" y="-638.83" font-family="Tahoma" font-size="14.00">[SPL/src/AuthContext.ts]</text>
</g>
<!-- [SPL/coverage/AuthContext.ts.html]&#45;&#45;[SPL/src/AuthContext.ts] -->
<g id="edge61" class="edge">
<title>[SPL/coverage/AuthContext.ts.html]&#45;&#45;[SPL/src/AuthContext.ts]</title>
<path fill="none" stroke="#dc143c" stroke-opacity="0.298039" d="M974.91,-711.95C998.08,-707.17 1021.98,-701.19 1043.88,-693.75 1067.84,-685.61 1093.29,-672.5 1112.11,-661.85"/>
<text xml:space="preserve" text-anchor="middle" x="1086.74" y="-682.35" font-family="Arial" font-size="12.00"> 12 </text>
</g>
<!-- [SPL/src/BuildDetail.tsx] -->
<g id="node8" class="node">
<title>[SPL/src/BuildDetail.tsx]</title>
<polygon fill="#00b2ee" stroke="white" points="1486.38,-747.75 1323.38,-747.75 1323.38,-711.75 1486.38,-711.75 1486.38,-747.75"/>
<text xml:space="preserve" text-anchor="middle" x="1404.88" y="-725.08" font-family="Tahoma" font-size="14.00">[SPL/src/BuildDetail.tsx]</text>
</g>
<!-- [backend/uploads/1761856845660&#45;484720083.tsx] -->
<g id="node9" class="node">
<title>[backend/uploads/1761856845660&#45;484720083.tsx]</title>
<polygon fill="#00b2ee" stroke="white" points="1568.12,-661.5 1241.62,-661.5 1241.62,-625.5 1568.12,-625.5 1568.12,-661.5"/>
<text xml:space="preserve" text-anchor="middle" x="1404.88" y="-638.83" font-family="Tahoma" font-size="14.00">[backend/uploads/1761856845660&#45;484720083.tsx]</text>
</g>
<!-- [SPL/src/BuildDetail.tsx]&#45;&#45;[backend/uploads/1761856845660&#45;484720083.tsx] -->
<g id="edge22" class="edge">
<title>[SPL/src/BuildDetail.tsx]&#45;&#45;[backend/uploads/1761856845660&#45;484720083.tsx]</title>
<path fill="none" stroke="#dc143c" stroke-opacity="0.298039" d="M1404.88,-711.29C1404.88,-696.83 1404.88,-676.39 1404.88,-661.93"/>
<text xml:space="preserve" text-anchor="middle" x="1418" y="-682.35" font-family="Arial" font-size="12.00"> 380 </text>
</g>
<!-- [backend/uploads/1761265231112&#45;624819031.tsx] -->
<g id="node11" class="node">
<title>[backend/uploads/1761265231112&#45;624819031.tsx]</title>
<polygon fill="#00b2ee" stroke="white" points="1950.12,-575.25 1623.62,-575.25 1623.62,-539.25 1950.12,-539.25 1950.12,-575.25"/>
<text xml:space="preserve" text-anchor="middle" x="1786.88" y="-552.58" font-family="Tahoma" font-size="14.00">[backend/uploads/1761265231112&#45;624819031.tsx]</text>
</g>
<!-- [backend/uploads/1761328515350&#45;537683809.tsx] -->
<g id="node12" class="node">
<title>[backend/uploads/1761328515350&#45;537683809.tsx]</title>
<polygon fill="#00b2ee" stroke="white" points="1950.12,-489 1623.62,-489 1623.62,-453 1950.12,-453 1950.12,-489"/>
<text xml:space="preserve" text-anchor="middle" x="1786.88" y="-466.32" font-family="Tahoma" font-size="14.00">[backend/uploads/1761328515350&#45;537683809.tsx]</text>
</g>
<!-- [backend/uploads/1761265231112&#45;624819031.tsx]&#45;&#45;[backend/uploads/1761328515350&#45;537683809.tsx] -->
<g id="edge29" class="edge">
<title>[backend/uploads/1761265231112&#45;624819031.tsx]&#45;&#45;[backend/uploads/1761328515350&#45;537683809.tsx]</title>
<path fill="none" stroke="#dc143c" stroke-opacity="0.298039" d="M1786.88,-538.79C1786.88,-524.33 1786.88,-503.89 1786.88,-489.43"/>
<text xml:space="preserve" text-anchor="middle" x="1800" y="-509.85" font-family="Arial" font-size="12.00"> 162 </text>
</g>
<!-- [backend/uploads/1761265169126&#45;984135838.tsx] -->
<g id="node13" class="node">
<title>[backend/uploads/1761265169126&#45;984135838.tsx]</title>
<polygon fill="#00b2ee" stroke="white" points="2060.12,-661.5 1733.62,-661.5 1733.62,-625.5 2060.12,-625.5 2060.12,-661.5"/>
<text xml:space="preserve" text-anchor="middle" x="1896.88" y="-638.83" font-family="Tahoma" font-size="14.00">[backend/uploads/1761265169126&#45;984135838.tsx]</text>
</g>
<!-- [backend/uploads/1761265169126&#45;984135838.tsx]&#45;&#45;[backend/uploads/1761265231112&#45;624819031.tsx] -->
<g id="edge31" class="edge">
<title>[backend/uploads/1761265169126&#45;984135838.tsx]&#45;&#45;[backend/uploads/1761265231112&#45;624819031.tsx]</title>
<path fill="none" stroke="#dc143c" stroke-opacity="0.298039" d="M1874.08,-625.04C1855.2,-610.58 1828.51,-590.14 1809.64,-575.68"/>
<text xml:space="preserve" text-anchor="middle" x="1861.59" y="-596.1" font-family="Arial" font-size="12.00"> 162 </text>
</g>
<!-- [backend/uploads/1761265169126&#45;984135838.tsx]&#45;&#45;[backend/uploads/1761328515350&#45;537683809.tsx] -->
<g id="edge30" class="edge">
<title>[backend/uploads/1761265169126&#45;984135838.tsx]&#45;&#45;[backend/uploads/1761328515350&#45;537683809.tsx]</title>
<path fill="none" stroke="#dc143c" stroke-opacity="0.298039" d="M1919.95,-625.31C1945,-604.5 1978.92,-568.61 1958.88,-539.25 1942.24,-514.89 1915.35,-499.35 1887.72,-489.44"/>
<text xml:space="preserve" text-anchor="middle" x="1978.07" y="-552.98" font-family="Arial" font-size="12.00"> 162 </text>
</g>
<!-- [SPL/src/Signup.tsx]&#45;&#45;[backend/uploads/1761261056814&#45;995230287.tsx] -->
<g id="edge32" class="edge">
<title>[SPL/src/Signup.tsx]&#45;&#45;[backend/uploads/1761261056814&#45;995230287.tsx]</title>
<path fill="none" stroke="#dc143c" stroke-opacity="0.298039" d="M162.88,-85.79C162.88,-71.33 162.88,-50.89 162.88,-36.43"/>
<text xml:space="preserve" text-anchor="middle" x="176" y="-56.85" font-family="Arial" font-size="12.00"> 152 </text>
</g>
<!-- [SPL/src/AddVersion.tsx] -->
<g id="node16" class="node">
<title>[SPL/src/AddVersion.tsx]</title>
<polygon fill="#00b2ee" stroke="white" points="1771.88,-747.75 1605.88,-747.75 1605.88,-711.75 1771.88,-711.75 1771.88,-747.75"/>
<text xml:space="preserve" text-anchor="middle" x="1688.88" y="-725.08" font-family="Tahoma" font-size="14.00">[SPL/src/AddVersion.tsx]</text>
</g>
<!-- [SPL/src/AddVersion.tsx]&#45;&#45;[backend/uploads/1761265231112&#45;624819031.tsx] -->
<g id="edge34" class="edge">
<title>[SPL/src/AddVersion.tsx]&#45;&#45;[backend/uploads/1761265231112&#45;624819031.tsx]</title>
<path fill="none" stroke="#dc143c" stroke-opacity="0.298039" d="M1686.48,-711.44C1684.36,-689.88 1683.59,-652.57 1698.62,-625.5 1710.59,-603.94 1732.66,-587.13 1751.73,-575.71"/>
<text xml:space="preserve" text-anchor="middle" x="1711.75" y="-639.23" font-family="Arial" font-size="12.00"> 144 </text>
</g>
<!-- [SPL/src/AddVersion.tsx]&#45;&#45;[backend/uploads/1761328515350&#45;537683809.tsx] -->
<g id="edge35" class="edge">
<title>[SPL/src/AddVersion.tsx]&#45;&#45;[backend/uploads/1761328515350&#45;537683809.tsx]</title>
<path fill="none" stroke="#dc143c" stroke-opacity="0.298039" d="M1671.66,-711.29C1639.3,-676.31 1576.04,-596.13 1614.88,-539.25 1631.51,-514.89 1658.4,-499.35 1686.03,-489.44"/>
<text xml:space="preserve" text-anchor="middle" x="1619.74" y="-596.1" font-family="Arial" font-size="12.00"> 144 </text>
</g>
<!-- [SPL/src/AddVersion.tsx]&#45;&#45;[backend/uploads/1761265169126&#45;984135838.tsx] -->
<g id="edge33" class="edge">
<title>[SPL/src/AddVersion.tsx]&#45;&#45;[backend/uploads/1761265169126&#45;984135838.tsx]</title>
<path fill="none" stroke="#dc143c" stroke-opacity="0.298039" d="M1731.97,-711.29C1767.67,-696.83 1818.15,-676.39 1853.83,-661.93"/>
<text xml:space="preserve" text-anchor="middle" x="1818.45" y="-682.35" font-family="Arial" font-size="12.00"> 144 </text>
</g>
<!-- [SPL/src/Login.css]&#45;&#45;[SPL/src/Signup.css] -->
<g id="edge62" class="edge">
<title>[SPL/src/Login.css]&#45;&#45;[SPL/src/Signup.css]</title>
<path fill="none" stroke="#dc143c" stroke-opacity="0.298039" d="M858.26,-312.52C852.7,-286.03 842.12,-235.57 836.53,-208.95"/>
<text xml:space="preserve" text-anchor="middle" x="863.74" y="-272.48" font-family="Arial" font-size="12.00"> 12 </text>
</g>
<!-- [SPL/coverage/index.html]&#45;&#45;[SPL/coverage/index.html] -->
<g id="edge38" class="edge">
<title>[SPL/coverage/index.html]&#45;&#45;[SPL/coverage/index.html]</title>
<path fill="none" stroke="#dc143c" stroke-opacity="0.298039" d="M703.56,-111.2C714.26,-109.94 721.25,-107.62 721.25,-104.25 721.25,-100.88 714.26,-98.56 703.56,-97.3"/>
<text xml:space="preserve" text-anchor="middle" x="731" y="-99.97" font-family="Arial" font-size="12.00"> 90 </text>
</g>
<!-- [SPL/src/Login.tsx]&#45;&#45;[SPL/src/Signup.tsx] -->
<g id="edge41" class="edge">
<title>[SPL/src/Login.tsx]&#45;&#45;[SPL/src/Signup.tsx]</title>
<path fill="none" stroke="#dc143c" stroke-opacity="0.298039" d="M87.56,-172.04C103.86,-157.58 126.92,-137.14 143.22,-122.68"/>
<text xml:space="preserve" text-anchor="middle" x="130.81" y="-143.1" font-family="Arial" font-size="12.00"> 66 </text>
</g>
<!-- [SPL/src/Login.tsx]&#45;&#45;[backend/uploads/1761261056814&#45;995230287.tsx] -->
<g id="edge40" class="edge">
<title>[SPL/src/Login.tsx]&#45;&#45;[backend/uploads/1761261056814&#45;995230287.tsx]</title>
<path fill="none" stroke="#dc143c" stroke-opacity="0.298039" d="M62.34,-172.26C56.5,-150.76 49.97,-113.53 64.38,-86.25 76.22,-63.82 99.28,-47.46 120.12,-36.49"/>
<text xml:space="preserve" text-anchor="middle" x="74.12" y="-99.97" font-family="Arial" font-size="12.00"> 66 </text>
</g>
<!-- [SPL/src/App.css] -->
<g id="node21" class="node">
<title>[SPL/src/App.css]</title>
<polygon fill="#00b2ee" stroke="white" points="2208.5,-747.75 2085.25,-747.75 2085.25,-711.75 2208.5,-711.75 2208.5,-747.75"/>
<text xml:space="preserve" text-anchor="middle" x="2146.88" y="-725.08" font-family="Tahoma" font-size="14.00">[SPL/src/App.css]</text>
</g>
<!-- [SPL/src/Footer.css] -->
<g id="node22" class="node">
<title>[SPL/src/Footer.css]</title>
<polygon fill="#00b2ee" stroke="white" points="2215.25,-661.5 2078.5,-661.5 2078.5,-625.5 2215.25,-625.5 2215.25,-661.5"/>
<text xml:space="preserve" text-anchor="middle" x="2146.88" y="-638.83" font-family="Tahoma" font-size="14.00">[SPL/src/Footer.css]</text>
</g>
<!-- [SPL/src/App.css]&#45;&#45;[SPL/src/Footer.css] -->
<g id="edge50" class="edge">
<title>[SPL/src/App.css]&#45;&#45;[SPL/src/Footer.css]</title>
<path fill="none" stroke="#dc143c" stroke-opacity="0.298039" d="M2146.88,-711.29C2146.88,-696.83 2146.88,-676.39 2146.88,-661.93"/>
<text xml:space="preserve" text-anchor="middle" x="2156.62" y="-682.35" font-family="Arial" font-size="12.00"> 38 </text>
</g>
<!-- [SPL/vite.config.ts] -->
<g id="node23" class="node">
<title>[SPL/vite.config.ts]</title>
<polygon fill="#00b2ee" stroke="white" points="2458.62,-747.75 2327.12,-747.75 2327.12,-711.75 2458.62,-711.75 2458.62,-747.75"/>
<text xml:space="preserve" text-anchor="middle" x="2392.88" y="-725.08" font-family="Tahoma" font-size="14.00">[SPL/vite.config.ts]</text>
</g>
<!-- [backend/uploads/1762455641633&#45;595545837.ts] -->
<g id="node24" class="node">
<title>[backend/uploads/1762455641633&#45;595545837.ts]</title>
<polygon fill="#00b2ee" stroke="white" points="2552.38,-661.5 2233.38,-661.5 2233.38,-625.5 2552.38,-625.5 2552.38,-661.5"/>
<text xml:space="preserve" text-anchor="middle" x="2392.88" y="-638.83" font-family="Tahoma" font-size="14.00">[backend/uploads/1762455641633&#45;595545837.ts]</text>
</g>
<!-- [SPL/vite.config.ts]&#45;&#45;[backend/uploads/1762455641633&#45;595545837.ts] -->
<g id="edge51" class="edge">
<title>[SPL/vite.config.ts]&#45;&#45;[backend/uploads/1762455641633&#45;595545837.ts]</title>
<path fill="none" stroke="#dc143c" stroke-opacity="0.298039" d="M2392.88,-711.29C2392.88,-696.83 2392.88,-676.39 2392.88,-661.93"/>
<text xml:space="preserve" text-anchor="middle" x="2402.62" y="-682.35" font-family="Arial" font-size="12.00"> 32 </text>
</g>
<!-- [backend/uploads/1762454458967&#45;378888263.js] -->
<g id="node25" class="node">
<title>[backend/uploads/1762454458967&#45;378888263.js]</title>
<polygon fill="#00b2ee" stroke="white" points="2889.38,-661.5 2570.38,-661.5 2570.38,-625.5 2889.38,-625.5 2889.38,-661.5"/>
<text xml:space="preserve" text-anchor="middle" x="2729.88" y="-638.83" font-family="Tahoma" font-size="14.00">[backend/uploads/1762454458967&#45;378888263.js]</text>
</g>
<!-- [backend/uploads/1762454573094&#45;541774994.js] -->
<g id="node26" class="node">
<title>[backend/uploads/1762454573094&#45;541774994.js]</title>
<polygon fill="#00b2ee" stroke="white" points="3036.38,-575.25 2717.38,-575.25 2717.38,-539.25 3036.38,-539.25 3036.38,-575.25"/>
<text xml:space="preserve" text-anchor="middle" x="2876.88" y="-552.58" font-family="Tahoma" font-size="14.00">[backend/uploads/1762454573094&#45;541774994.js]</text>
</g>
<!-- [backend/uploads/1762454458967&#45;378888263.js]&#45;&#45;[backend/uploads/1762454573094&#45;541774994.js] -->
<g id="edge52" class="edge">
<title>[backend/uploads/1762454458967&#45;378888263.js]&#45;&#45;[backend/uploads/1762454573094&#45;541774994.js]</title>
<path fill="none" stroke="#dc143c" stroke-opacity="0.298039" d="M2760.33,-625.04C2785.56,-610.58 2821.24,-590.14 2846.46,-575.68"/>
<text xml:space="preserve" text-anchor="middle" x="2821.93" y="-596.1" font-family="Arial" font-size="12.00"> 30 </text>
</g>
<!-- [SPL/eslint.config.js] -->
<g id="node27" class="node">
<title>[SPL/eslint.config.js]</title>
<polygon fill="#00b2ee" stroke="white" points="2887.12,-747.75 2746.62,-747.75 2746.62,-711.75 2887.12,-711.75 2887.12,-747.75"/>
<text xml:space="preserve" text-anchor="middle" x="2816.88" y="-725.08" font-family="Tahoma" font-size="14.00">[SPL/eslint.config.js]</text>
</g>
<!-- [SPL/eslint.config.js]&#45;&#45;[backend/uploads/1762454458967&#45;378888263.js] -->
<g id="edge53" class="edge">
<title>[SPL/eslint.config.js]&#45;&#45;[backend/uploads/1762454458967&#45;378888263.js]</title>
<path fill="none" stroke="#dc143c" stroke-opacity="0.298039" d="M2798.85,-711.29C2783.92,-696.83 2762.8,-676.39 2747.88,-661.93"/>
<text xml:space="preserve" text-anchor="middle" x="2788.33" y="-682.35" font-family="Arial" font-size="12.00"> 30 </text>
</g>
<!-- [SPL/eslint.config.js]&#45;&#45;[backend/uploads/1762454573094&#45;541774994.js] -->
<g id="edge54" class="edge">
<title>[SPL/eslint.config.js]&#45;&#45;[backend/uploads/1762454573094&#45;541774994.js]</title>
<path fill="none" stroke="#dc143c" stroke-opacity="0.298039" d="M2849.89,-711.37C2867.97,-699.88 2888.72,-682.97 2898.88,-661.5 2912.28,-633.17 2897.96,-596.62 2886.97,-575.47"/>
<text xml:space="preserve" text-anchor="middle" x="2914.05" y="-639.23" font-family="Arial" font-size="12.00"> 30 </text>
</g>
<!-- [SPL/src/BuildDetail.css] -->
<g id="node28" class="node">
<title>[SPL/src/BuildDetail.css]</title>
<polygon fill="#00b2ee" stroke="white" points="3087.12,-747.75 2922.62,-747.75 2922.62,-711.75 3087.12,-711.75 3087.12,-747.75"/>
<text xml:space="preserve" text-anchor="middle" x="3004.88" y="-725.08" font-family="Tahoma" font-size="14.00">[SPL/src/BuildDetail.css]</text>
</g>
<!-- [SPL/src/BuildDetail.css]&#45;&#45;[SPL/src/BuildDetail.css] -->
<g id="edge56" class="edge">
<title>[SPL/src/BuildDetail.css]&#45;&#45;[SPL/src/BuildDetail.css]</title>
<path fill="none" stroke="#dc143c" stroke-opacity="0.298039" d="M3087.47,-736.84C3098.1,-735.61 3105.12,-733.25 3105.12,-729.75 3105.12,-726.25 3098.1,-723.89 3087.47,-722.66"/>
<text xml:space="preserve" text-anchor="middle" x="3114.88" y="-725.48" font-family="Arial" font-size="12.00"> 24 </text>
</g>
<!-- [SPL/index.html] -->
<g id="node29" class="node">
<title>[SPL/index.html]</title>
<polygon fill="#00b2ee" stroke="white" points="3268.5,-747.75 3151.25,-747.75 3151.25,-711.75 3268.5,-711.75 3268.5,-747.75"/>
<text xml:space="preserve" text-anchor="middle" x="3209.88" y="-725.08" font-family="Tahoma" font-size="14.00">[SPL/index.html]</text>
</g>
<!-- [backend/uploads/1762454810175&#45;584589586.html] -->
<g id="node30" class="node">
<title>[backend/uploads/1762454810175&#45;584589586.html]</title>
<polygon fill="#00b2ee" stroke="white" points="3378,-661.5 3041.75,-661.5 3041.75,-625.5 3378,-625.5 3378,-661.5"/>
<text xml:space="preserve" text-anchor="middle" x="3209.88" y="-638.83" font-family="Tahoma" font-size="14.00">[backend/uploads/1762454810175&#45;584589586.html]</text>
</g>
<!-- [SPL/index.html]&#45;&#45;[backend/uploads/1762454810175&#45;584589586.html] -->
<g id="edge58" class="edge">
<title>[SPL/index.html]&#45;&#45;[backend/uploads/1762454810175&#45;584589586.html]</title>
<path fill="none" stroke="#dc143c" stroke-opacity="0.298039" d="M3209.88,-711.29C3209.88,-696.83 3209.88,-676.39 3209.88,-661.93"/>
<text xml:space="preserve" text-anchor="middle" x="3219.62" y="-682.35" font-family="Arial" font-size="12.00"> 20 </text>
</g>
<!-- [SPL/src/Builds.css] -->
<g id="node31" class="node">
<title>[SPL/src/Builds.css]</title>
<polygon fill="#00b2ee" stroke="white" points="3421.5,-747.75 3286.25,-747.75 3286.25,-711.75 3421.5,-711.75 3421.5,-747.75"/>
<text xml:space="preserve" text-anchor="middle" x="3353.88" y="-725.08" font-family="Tahoma" font-size="14.00">[SPL/src/Builds.css]</text>
</g>
<!-- [SPL/src/Builds.css]&#45;&#45;[SPL/src/Builds.css] -->
<g id="edge59" class="edge">
<title>[SPL/src/Builds.css]&#45;&#45;[SPL/src/Builds.css]</title>
<path fill="none" stroke="#dc143c" stroke-opacity="0.298039" d="M3421.71,-737.16C3432.29,-736.05 3439.5,-733.58 3439.5,-729.75 3439.5,-725.92 3432.29,-723.45 3421.71,-722.34"/>
<text xml:space="preserve" text-anchor="middle" x="3449.25" y="-725.48" font-family="Arial" font-size="12.00"> 20 </text>
</g>
<!-- [SPL/src/AddVersion.css] -->
<g id="node32" class="node">
<title>[SPL/src/AddVersion.css]</title>
<polygon fill="#00b2ee" stroke="white" points="3644.62,-747.75 3477.12,-747.75 3477.12,-711.75 3644.62,-711.75 3644.62,-747.75"/>
<text xml:space="preserve" text-anchor="middle" x="3560.88" y="-725.08" font-family="Tahoma" font-size="14.00">[SPL/src/AddVersion.css]</text>
</g>
<!-- [SPL/src/AddVersion.css]&#45;&#45;[SPL/src/AddVersion.css] -->
<g id="edge60" class="edge">
<title>[SPL/src/AddVersion.css]&#45;&#45;[SPL/src/AddVersion.css]</title>
<path fill="none" stroke="#dc143c" stroke-opacity="0.298039" d="M3645.09,-736.79C3655.67,-735.55 3662.62,-733.2 3662.62,-729.75 3662.62,-726.3 3655.67,-723.95 3645.09,-722.71"/>
<text xml:space="preserve" text-anchor="middle" x="3672.38" y="-725.48" font-family="Arial" font-size="12.00"> 12 </text>
</g>
</g>
</svg>
