<svg width="198pt" height="217pt"
 viewBox="0.00 0.00 198.00 217.00" xmlns="http://www.w3.org/2000/svg" xmlns:xlink="http://www.w3.org/1999/xlink">
<g id="graph0" class="graph" transform="scale(1 1) rotate(0) translate(4 212.5)">
<title>G</title>
<polygon fill="white" stroke="none" points="-4,4 -4,-212.5 193.5,-212.5 193.5,4 -4,4"/>
<!-- SPL/src -->
<g id="node1" class="node">
<title>SPL/src</title>
<polygon fill="#00b2ee" stroke="white" points="61,-122.25 0,-122.25 0,-86.25 61,-86.25 61,-122.25"/>
<text xml:space="preserve" text-anchor="middle" x="30.5" y="-99.58" font-family="Tahoma" font-size="14.00">SPL/src</text>
</g>
<!-- backend/uploads -->
<g id="node2" class="node">
<title>backend/uploads</title>
<polygon fill="#00b2ee" stroke="white" points="156.88,-36 38.12,-36 38.12,0 156.88,0 156.88,-36"/>
<text xml:space="preserve" text-anchor="middle" x="97.5" y="-13.32" font-family="Tahoma" font-size="14.00">backend/uploads</text>
</g>
<!-- SPL/src&#45;&#45;backend/uploads -->
<g id="edge1" class="edge">
<title>SPL/src&#45;&#45;backend/uploads</title>
<path fill="none" stroke="#dc143c" stroke-width="10" d="M38.03,-85.91C42.77,-76.03 49.45,-63.71 57.25,-54 62.35,-47.64 68.7,-41.52 74.84,-36.23"/>
<text xml:space="preserve" text-anchor="middle" x="70.38" y="-56.85" font-family="Arial" font-size="12.00"> 841 </text>
</g>
<!-- SPL/coverage -->
<g id="node3" class="node">
<title>SPL/coverage</title>
<polygon fill="#00b2ee" stroke="white" points="113.12,-208.5 13.88,-208.5 13.88,-172.5 113.12,-172.5 113.12,-208.5"/>
<text xml:space="preserve" text-anchor="middle" x="63.5" y="-185.82" font-family="Tahoma" font-size="14.00">SPL/coverage</text>
</g>
<!-- SPL/coverage&#45;&#45;SPL/src -->
<g id="edge2" class="edge">
<title>SPL/coverage&#45;&#45;SPL/src</title>
<path fill="none" stroke="#dc143c" stroke-width="6" stroke-opacity="0.717647" d="M56.66,-172.04C51,-157.58 42.99,-137.14 37.33,-122.68"/>
<text xml:space="preserve" text-anchor="middle" x="62.1" y="-143.1" font-family="Arial" font-size="12.00"> 524 </text>
</g>
<!-- SPL/coverage&#45;&#45;backend/uploads -->
<g id="edge4" class="edge">
<title>SPL/coverage&#45;&#45;backend/uploads</title>
<path fill="none" stroke="#dc143c" stroke-opacity="0.298039" d="M72.69,-172.08C75.25,-166.59 77.8,-160.41 79.5,-154.5 91.39,-113.22 95.46,-62.58 96.83,-36.45"/>
<text xml:space="preserve" text-anchor="middle" x="102.15" y="-99.97" font-family="Arial" font-size="12.00"> 24 </text>
</g>
<!-- SPL -->
<g id="node4" class="node">
<title>SPL</title>
<polygon fill="#00b2ee" stroke="white" points="189.5,-122.25 135.5,-122.25 135.5,-86.25 189.5,-86.25 189.5,-122.25"/>
<text xml:space="preserve" text-anchor="middle" x="162.5" y="-99.58" font-family="Tahoma" font-size="14.00">SPL</text>
</g>
<!-- SPL&#45;&#45;backend/uploads -->
<g id="edge3" class="edge">
<title>SPL&#45;&#45;backend/uploads</title>
<path fill="none" stroke="#dc143c" stroke-opacity="0.368627" d="M149.03,-85.79C137.88,-71.33 122.1,-50.89 110.95,-36.43"/>
<text xml:space="preserve" text-anchor="middle" x="143.64" y="-56.85" font-family="Arial" font-size="12.00"> 97 </text>
</g>
</g>
</svg>
