<svg width="1942pt" height="130pt"
 viewBox="0.00 0.00 1942.00 130.00" xmlns="http://www.w3.org/2000/svg" xmlns:xlink="http://www.w3.org/1999/xlink">
<g id="graph0" class="graph" transform="scale(1 1) rotate(0) translate(4 126.25)">
<title>G</title>
<polygon fill="white" stroke="none" points="-4,4 -4,-126.25 1937.75,-126.25 1937.75,4 -4,4"/>
<!-- [SPL/src/Login.tsx] -->
<g id="node1" class="node">
<title>[SPL/src/Login.tsx]</title>
<polygon fill="#00b2ee" stroke="white" points="134.88,-122.25 4.12,-122.25 4.12,-86.25 134.88,-86.25 134.88,-122.25"/>
<text xml:space="preserve" text-anchor="middle" x="69.5" y="-99.58" font-family="Tahoma" font-size="14.00">[SPL/src/Login.tsx]</text>
</g>
<!-- [SPL/src/Signup.tsx] -->
<g id="node2" class="node">
<title>[SPL/src/Signup.tsx]</title>
<polygon fill="#00b2ee" stroke="white" points="139,-36 0,-36 0,0 139,0 139,-36"/>
<text xml:space="preserve" text-anchor="middle" x="69.5" y="-13.32" font-family="Tahoma" font-size="14.00">[SPL/src/Signup.tsx]</text>
</g>
<!-- [SPL/src/Login.tsx]&#45;&#45;[SPL/src/Signup.tsx] -->
<g id="edge1" class="edge">
<title>[SPL/src/Login.tsx]&#45;&#45;[SPL/src/Signup.tsx]</title>
<path fill="none" stroke="#dc143c" stroke-width="10" d="M69.5,-85.79C69.5,-71.33 69.5,-50.89 69.5,-36.43"/>
<text xml:space="preserve" text-anchor="middle" x="79.25" y="-56.85" font-family="Arial" font-size="12.00"> 66 </text>
</g>
<!-- [SPL/src/BuildDetail.css] -->
<g id="node3" class="node">
<title>[SPL/src/BuildDetail.css]</title>
<polygon fill="#00b2ee" stroke="white" points="317.75,-122.25 153.25,-122.25 153.25,-86.25 317.75,-86.25 317.75,-122.25"/>
<text xml:space="preserve" text-anchor="middle" x="235.5" y="-99.58" font-family="Tahoma" font-size="14.00">[SPL/src/BuildDetail.css]</text>
</g>
<!-- [SPL/src/BuildDetail.css]&#45;&#45;[SPL/src/BuildDetail.css] -->
<g id="edge2" class="edge">
<title>[SPL/src/BuildDetail.css]&#45;&#45;[SPL/src/BuildDetail.css]</title>
<path fill="none" stroke="#dc143c" stroke-width="3" stroke-opacity="0.509804" d="M318.09,-111.34C328.72,-110.11 335.75,-107.75 335.75,-104.25 335.75,-100.75 328.72,-98.39 318.09,-97.16"/>
<text xml:space="preserve" text-anchor="middle" x="345.5" y="-99.97" font-family="Arial" font-size="12.00"> 24 </text>
</g>
<!-- [SPL/src/Builds.css] -->
<g id="node4" class="node">
<title>[SPL/src/Builds.css]</title>
<polygon fill="#00b2ee" stroke="white" points="508.12,-122.25 372.88,-122.25 372.88,-86.25 508.12,-86.25 508.12,-122.25"/>
<text xml:space="preserve" text-anchor="middle" x="440.5" y="-99.58" font-family="Tahoma" font-size="14.00">[SPL/src/Builds.css]</text>
</g>
<!-- [SPL/src/Builds.css]&#45;&#45;[SPL/src/Builds.css] -->
<g id="edge3" class="edge">
<title>[SPL/src/Builds.css]&#45;&#45;[SPL/src/Builds.css]</title>
<path fill="none" stroke="#dc143c" stroke-width="3" stroke-opacity="0.509804" d="M508.33,-111.66C518.91,-110.55 526.12,-108.08 526.12,-104.25 526.12,-100.42 518.91,-97.95 508.33,-96.84"/>
<text xml:space="preserve" text-anchor="middle" x="535.88" y="-99.97" font-family="Arial" font-size="12.00"> 20 </text>
</g>
<!-- [cypress/e2e/features/parcours_critiques/parcours_critiques.steps.js] -->
<g id="node5" class="node">
<title>[cypress/e2e/features/parcours_critiques/parcours_critiques.steps.js]</title>
<polygon fill="#00b2ee" stroke="white" points="1003.38,-122.25 563.62,-122.25 563.62,-86.25 1003.38,-86.25 1003.38,-122.25"/>
<text xml:space="preserve" text-anchor="middle" x="783.5" y="-99.58" font-family="Tahoma" font-size="14.00">[cypress/e2e/features/parcours_critiques/parcours_critiques.steps.js]</text>
</g>
<!-- [cypress/e2e/features/parcours_critiques/parcours_critiques.steps.js]&#45;&#45;[cypress/e2e/features/parcours_critiques/parcours_critiques.steps.js] -->
<g id="edge4" class="edge">
<title>[cypress/e2e/features/parcours_critiques/parcours_critiques.steps.js]&#45;&#45;[cypress/e2e/features/parcours_critiques/parcours_critiques.steps.js]</title>
<path fill="none" stroke="#dc143c" stroke-width="2" stroke-opacity="0.439216" d="M1003.74,-109.49C1014.83,-108.19 1021.38,-106.44 1021.38,-104.25 1021.38,-102.06 1014.83,-100.31 1003.74,-99.01"/>
<text xml:space="preserve" text-anchor="middle" x="1031.12" y="-99.97" font-family="Arial" font-size="12.00"> 18 </text>
</g>
<!-- [SPL/src/App.css] -->
<g id="node6" class="node">
<title>[SPL/src/App.css]</title>
<polygon fill="#00b2ee" stroke="white" points="1182.12,-122.25 1058.88,-122.25 1058.88,-86.25 1182.12,-86.25 1182.12,-122.25"/>
<text xml:space="preserve" text-anchor="middle" x="1120.5" y="-99.58" font-family="Tahoma" font-size="14.00">[SPL/src/App.css]</text>
</g>
<!-- [SPL/src/Footer.css] -->
<g id="node7" class="node">
<title>[SPL/src/Footer.css]</title>
<polygon fill="#00b2ee" stroke="white" points="1188.88,-36 1052.12,-36 1052.12,0 1188.88,0 1188.88,-36"/>
<text xml:space="preserve" text-anchor="middle" x="1120.5" y="-13.32" font-family="Tahoma" font-size="14.00">[SPL/src/Footer.css]</text>
</g>
<!-- [SPL/src/App.css]&#45;&#45;[SPL/src/Footer.css] -->
<g id="edge5" class="edge">
<title>[SPL/src/App.css]&#45;&#45;[SPL/src/Footer.css]</title>
<path fill="none" stroke="#dc143c" stroke-width="2" stroke-opacity="0.439216" d="M1120.5,-85.79C1120.5,-71.33 1120.5,-50.89 1120.5,-36.43"/>
<text xml:space="preserve" text-anchor="middle" x="1130.25" y="-56.85" font-family="Arial" font-size="12.00"> 14 </text>
</g>
<!-- [backend/src/controllers/assetController.js] -->
<g id="node8" class="node">
<title>[backend/src/controllers/assetController.js]</title>
<polygon fill="#00b2ee" stroke="white" points="1482,-122.25 1205,-122.25 1205,-86.25 1482,-86.25 1482,-122.25"/>
<text xml:space="preserve" text-anchor="middle" x="1343.5" y="-99.58" font-family="Tahoma" font-size="14.00">[backend/src/controllers/assetController.js]</text>
</g>
<!-- [backend/src/controllers/buildController.js] -->
<g id="node9" class="node">
<title>[backend/src/controllers/buildController.js]</title>
<polygon fill="#00b2ee" stroke="white" points="1480.5,-36 1206.5,-36 1206.5,0 1480.5,0 1480.5,-36"/>
<text xml:space="preserve" text-anchor="middle" x="1343.5" y="-13.32" font-family="Tahoma" font-size="14.00">[backend/src/controllers/buildController.js]</text>
</g>
<!-- [backend/src/controllers/assetController.js]&#45;&#45;[backend/src/controllers/buildController.js] -->
<g id="edge6" class="edge">
<title>[backend/src/controllers/assetController.js]&#45;&#45;[backend/src/controllers/buildController.js]</title>
<path fill="none" stroke="#dc143c" stroke-opacity="0.368627" d="M1343.5,-85.79C1343.5,-71.33 1343.5,-50.89 1343.5,-36.43"/>
<text xml:space="preserve" text-anchor="middle" x="1353.25" y="-56.85" font-family="Arial" font-size="12.00"> 12 </text>
</g>
<!-- [SPL/src/AddVersion.css] -->
<g id="node10" class="node">
<title>[SPL/src/AddVersion.css]</title>
<polygon fill="#00b2ee" stroke="white" points="1667.25,-122.25 1499.75,-122.25 1499.75,-86.25 1667.25,-86.25 1667.25,-122.25"/>
<text xml:space="preserve" text-anchor="middle" x="1583.5" y="-99.58" font-family="Tahoma" font-size="14.00">[SPL/src/AddVersion.css]</text>
</g>
<!-- [SPL/src/AddVersion.css]&#45;&#45;[SPL/src/AddVersion.css] -->
<g id="edge7" class="edge">
<title>[SPL/src/AddVersion.css]&#45;&#45;[SPL/src/AddVersion.css]</title>
<path fill="none" stroke="#dc143c" stroke-opacity="0.368627" d="M1667.71,-111.29C1678.29,-110.05 1685.25,-107.7 1685.25,-104.25 1685.25,-100.8 1678.29,-98.45 1667.71,-97.21"/>
<text xml:space="preserve" text-anchor="middle" x="1695" y="-99.97" font-family="Arial" font-size="12.00"> 12 </text>
</g>
<!-- [cypress/e2e/admin.cy.js] -->
<g id="node11" class="node">
<title>[cypress/e2e/admin.cy.js]</title>
<polygon fill="#00b2ee" stroke="white" points="1896.25,-122.25 1722.75,-122.25 1722.75,-86.25 1896.25,-86.25 1896.25,-122.25"/>
<text xml:space="preserve" text-anchor="middle" x="1809.5" y="-99.58" font-family="Tahoma" font-size="14.00">[cypress/e2e/admin.cy.js]</text>
</g>
<!-- [cypress/e2e/admin.cy.js]&#45;&#45;[cypress/e2e/admin.cy.js] -->
<g id="edge8" class="edge">
<title>[cypress/e2e/admin.cy.js]&#45;&#45;[cypress/e2e/admin.cy.js]</title>
<path fill="none" stroke="#dc143c" stroke-opacity="0.368627" d="M1896.59,-111.25C1907.26,-109.99 1914.25,-107.66 1914.25,-104.25 1914.25,-100.84 1907.26,-98.51 1896.59,-97.25"/>
<text xml:space="preserve" text-anchor="middle" x="1924" y="-99.97" font-family="Arial" font-size="12.00"> 12 </text>
</g>
<!-- [cypress/support/commands.js] -->
<g id="node12" class="node">
<title>[cypress/support/commands.js]</title>
<polygon fill="#00b2ee" stroke="white" points="1914.25,-36 1704.75,-36 1704.75,0 1914.25,0 1914.25,-36"/>
<text xml:space="preserve" text-anchor="middle" x="1809.5" y="-13.32" font-family="Tahoma" font-size="14.00">[cypress/support/commands.js]</text>
</g>
<!-- [cypress/e2e/admin.cy.js]&#45;&#45;[cypress/support/commands.js] -->
<g id="edge9" class="edge">
<title>[cypress/e2e/admin.cy.js]&#45;&#45;[cypress/support/commands.js]</title>
<path fill="none" stroke="#dc143c" stroke-opacity="0.368627" d="M1809.5,-85.79C1809.5,-71.33 1809.5,-50.89 1809.5,-36.43"/>
<text xml:space="preserve" text-anchor="middle" x="1819.25" y="-56.85" font-family="Arial" font-size="12.00"> 12 </text>
</g>
</g>
</svg>
